<svg width="23" height="25" viewBox="0 0 23 25" fill="none" xmlns="http://www.w3.org/2000/svg">
<path fill-rule="evenodd" clip-rule="evenodd" d="M11.9987 21C11.7335 21 11.4792 20.8946 11.2916 20.7071C11.1041 20.5196 10.9987 20.2652 10.9987 20L10.9987 8.414L6.70674 12.708C6.61376 12.801 6.50338 12.8747 6.3819 12.925C6.26042 12.9754 6.13022 13.0013 5.99874 13.0013C5.86725 13.0013 5.73705 12.9754 5.61557 12.925C5.49409 12.8747 5.38371 12.801 5.29074 12.708C5.19776 12.615 5.12401 12.5046 5.07369 12.3832C5.02337 12.2617 4.99747 12.1315 4.99747 12C4.99747 11.8685 5.02337 11.7383 5.07369 11.6168C5.12401 11.4954 5.19776 11.385 5.29074 11.292L11.2907 5.292C11.3836 5.19887 11.494 5.12499 11.6155 5.07458C11.737 5.02416 11.8672 4.99821 11.9987 4.99821C12.1303 4.99821 12.2605 5.02416 12.382 5.07458C12.5035 5.12499 12.6138 5.19887 12.7067 5.292L18.7067 11.292C18.7997 11.385 18.8735 11.4954 18.9238 11.6168C18.9741 11.7383 19 11.8685 19 12C19 12.1315 18.9741 12.2617 18.9238 12.3832C18.8735 12.5046 18.7997 12.615 18.7067 12.708C18.519 12.8958 18.2643 13.0013 17.9987 13.0013C17.8672 13.0013 17.737 12.9754 17.6156 12.925C17.4941 12.8747 17.3837 12.801 17.2907 12.708L12.9987 8.414L12.9987 20C12.9987 20.2652 12.8934 20.5196 12.7058 20.7071C12.5183 20.8946 12.264 21 11.9987 21V21Z" fill="white"/>
</svg>
